<svg version="1.1" xmlns="http://www.w3.org/2000/svg" xmlns:xlink="http://www.w3.org/1999/xlink" width="43.71541" height="36.075"><g transform="translate(-219.89063,-147.72556)"><g data-paper-data="{&quot;isPaintingLayer&quot;:true}" fill="none" fill-rule="nonzero" stroke="#4697ff" stroke-width="none" stroke-linecap="butt" stroke-linejoin="miter" stroke-miterlimit="10" stroke-dasharray="" stroke-dashoffset="0" font-family="none" font-weight="none" font-size="none" text-anchor="none" style="mix-blend-mode: normal"><path d="M246.50331,178.9922c0,2.5175 -1.97327,4.55836 -4.40741,4.55836c-2.43415,0 -4.4074,-2.04085 -4.4074,-4.55836c0,-2.5175 1.97325,-4.55834 4.4074,-4.55834c2.43415,0 4.40741,2.04084 4.40741,4.55834z" data-paper-data="{&quot;origPos&quot;:null}" fill="#4597ff" stroke-width="0.5"/><path d="M235.3192,172.60619c0.19183,-2.33315 3.17347,-4.18675 6.82353,-4.18675c3.62841,0 6.59631,1.83167 6.81982,4.14529" data-paper-data="{&quot;origPos&quot;:null}" fill="none" stroke-width="5"/><path d="M228.85491,166.92762c0.36623,-4.45429 6.05856,-7.99304 13.02699,-7.99304c6.9271,0 12.59321,3.49689 13.01992,7.91388" data-paper-data="{&quot;origPos&quot;:null}" fill="none" stroke-width="5"/><path d="M222.39063,162.10619c0.54435,-6.62074 9.00529,-11.88063 19.36296,-11.88063c10.29626,0 18.71819,5.19769 19.35245,11.76298" data-paper-data="{&quot;origPos&quot;:null}" fill="none" stroke-width="5"/></g></g></svg>